# xmcd
#
# Track frame offsets: 
#        150
#        17650
#        37295
#        59527
#        87950
#        105592
#        121695
#        141892
#        164245
#        181182
#        196347
#        216415
#        233632
#        256312
#        279610
#        302317
#        320277
#
# Disc length: 4552 seconds
#
# Revision: 10
# Processed by: cddbd v1.5.2PL0 Copyright (c) Steve Scherf et al.
# Submitted via: ExactAudioCopyFreeDBPlugin 1.0
#
DISCID=f011c611
DTITLE=Various Artist - A Tribute To Curtis Mayfield
DYEAR=1994
DGENRE=Soul
TTITLE0=Gladys Night - Choice Of Colors
TTITLE1=Steve Winwood - It's All Right!
TTITLE2=Repercussions and Curtis Mayfield - Let's Do It Again
TTITLE3=Lenny Kravitz - Billy Jack
TTITLE4=Whitney Houston - Look Into Your Heart
TTITLE5=Bruce Springsteen - Gypsy Woman
TTITLE6=Eric Clapton - You Must Believe Me
TTITLE7=Isley Brothers - I'm So Proud
TTITLE8=Branford Marsalis and The Impressions - Fool For You
TTITLE9=Tevin Campbell - Keep On Pushin'
TTITLE10=Aretha Franklin - The Makings Of You
TTITLE11=B.B. King - Woman's Got Soul
TTITLE12=Rod Stewart - People Get Ready
TTITLE13=Narada Michael Walden - (Don't Worry) If There's A Hell Below
TTITLE13=, We're All Going To Go
TTITLE14=Phil Collins - I've Been Trying
TTITLE15=Stevie Wonder - I'm The One Who Loves You
TTITLE16=Elton John and Sounds Of Blackness - Amen
EXTD=
EXTT0=
EXTT1=
EXTT2=
EXTT3=
EXTT4=
EXTT5=
EXTT6=
EXTT7=
EXTT8=
EXTT9=
EXTT10=
EXTT11=
EXTT12=
EXTT13=
EXTT14=
EXTT15=
EXTT16=
PLAYORDER=
